<svg width="30" height="30" viewBox="0 0 30 30" fill="none" xmlns="http://www.w3.org/2000/svg">
<path d="M6.25 16.25V6.25C6.25 5.58696 6.51339 4.95107 6.98223 4.48223C7.45107 4.01339 8.08696 3.75 8.75 3.75H23.75C24.413 3.75 25.0489 4.01339 25.5178 4.48223C25.9866 4.95107 26.25 5.58696 26.25 6.25V22.5C26.25 23.75 25.5 26.25 22.5 26.25M11.25 8.75H21.25M11.25 13.75H16.25M22.5 26.25H7.5C6.25 26.25 3.75 25.5 3.75 22.5V20H18.75V22.5C18.75 25.5 21.25 26.25 22.5 26.25Z" stroke="#2FBD85" stroke-width="2" stroke-linecap="round" stroke-linejoin="round"/>
</svg>
