<svg width="30" height="30" viewBox="0 0 30 30" fill="none" xmlns="http://www.w3.org/2000/svg">
<g clip-path="url(#clip0_1_659)">
<path fill-rule="evenodd" clip-rule="evenodd" d="M5 6.25C5 5.25544 5.39509 4.30161 6.09835 3.59835C6.80161 2.89509 7.75544 2.5 8.75 2.5H21.25C22.2446 2.5 23.1984 2.89509 23.9017 3.59835C24.6049 4.30161 25 5.25544 25 6.25V26.25C24.9999 26.4854 24.9332 26.716 24.8078 26.9153C24.6823 27.1145 24.5032 27.2742 24.2909 27.3761C24.0787 27.478 23.842 27.5179 23.6081 27.4911C23.3741 27.4644 23.1525 27.3721 22.9688 27.225L20.625 25.35L18.2812 27.225C18.0411 27.4174 17.7385 27.5144 17.4313 27.4976C17.1241 27.4807 16.8339 27.3512 16.6163 27.1338L15 25.5175L13.3837 27.1338C13.1663 27.3514 12.8761 27.4811 12.5689 27.4982C12.2617 27.5153 11.959 27.4184 11.7188 27.2262L9.375 25.35L7.03125 27.225C6.84747 27.3721 6.62586 27.4644 6.39195 27.4911C6.15804 27.5179 5.92133 27.478 5.70909 27.3761C5.49684 27.2742 5.31768 27.1145 5.19223 26.9153C5.06678 26.716 5.00015 26.4854 5 26.25V6.25ZM8.75 5C8.41848 5 8.10054 5.1317 7.86612 5.36612C7.6317 5.60054 7.5 5.91848 7.5 6.25V23.65L8.59375 22.775C8.81545 22.5975 9.09099 22.5008 9.375 22.5008C9.65901 22.5008 9.93455 22.5975 10.1562 22.775L12.4062 24.575L14.1163 22.8662C14.3507 22.6319 14.6685 22.5003 15 22.5003C15.3315 22.5003 15.6493 22.6319 15.8837 22.8662L17.5925 24.575L19.8438 22.775C20.0655 22.5975 20.341 22.5008 20.625 22.5008C20.909 22.5008 21.1845 22.5975 21.4062 22.775L22.5 23.65V6.25C22.5 5.91848 22.3683 5.60054 22.1339 5.36612C21.8995 5.1317 21.5815 5 21.25 5H8.75ZM10 11.25C10 10.9185 10.1317 10.6005 10.3661 10.3661C10.6005 10.1317 10.9185 10 11.25 10H18.75C19.0815 10 19.3995 10.1317 19.6339 10.3661C19.8683 10.6005 20 10.9185 20 11.25C20 11.5815 19.8683 11.8995 19.6339 12.1339C19.3995 12.3683 19.0815 12.5 18.75 12.5H11.25C10.9185 12.5 10.6005 12.3683 10.3661 12.1339C10.1317 11.8995 10 11.5815 10 11.25ZM11.25 15C10.9185 15 10.6005 15.1317 10.3661 15.3661C10.1317 15.6005 10 15.9185 10 16.25C10 16.5815 10.1317 16.8995 10.3661 17.1339C10.6005 17.3683 10.9185 17.5 11.25 17.5H15C15.3315 17.5 15.6495 17.3683 15.8839 17.1339C16.1183 16.8995 16.25 16.5815 16.25 16.25C16.25 15.9185 16.1183 15.6005 15.8839 15.3661C15.6495 15.1317 15.3315 15 15 15H11.25Z" fill="#2FBD85"/>
</g>
<defs>
<clipPath id="clip0_1_659">
<rect width="30" height="30" fill="white"/>
</clipPath>
</defs>
</svg>
